<?xml version="1.0" encoding="UTF-8" standalone="no"?>
<!-- Created with Inkscape (http://www.inkscape.org/) -->

<svg
   width="69.056747mm"
   height="13.133251mm"
   viewBox="0 0 69.056747 13.133251"
   version="1.1"
   id="svg1"
   xml:space="preserve"
   xmlns="http://www.w3.org/2000/svg"
   xmlns:svg="http://www.w3.org/2000/svg"><defs
     id="defs1" /><g
     id="layer1"
     transform="translate(-151.62873,131.60123)"><g
       id="g163"
       transform="translate(-82.990944,2.6895213)"><g
         id="g161"
         transform="translate(0,0.03480339)"><g
           id="g160"
           transform="translate(15.79491,2.1055408)"><path
             style="fill:#4267ae;fill-opacity:1"
             d="m 228.10634,-124.93997 c 0,-0.0116 0.50419,-0.53069 1.12042,-1.15358 l 1.12042,-1.13253 0.001,0.762 c 9.4e-4,0.71509 -0.005,0.77534 -0.0999,0.97862 -0.10907,0.23424 -0.31169,0.41576 -0.56497,0.50615 -0.15276,0.0545 -1.57701,0.0901 -1.57701,0.0394 z"
             id="path145" /><path
             style="fill:#4267ae;fill-opacity:1"
             d="m 225.53319,-127.19433 0.012,-2.27542 0.10364,-0.21062 c 0.0686,-0.13945 0.39004,-0.51137 0.95123,-1.10067 0.46618,-0.48952 1.01009,-1.06069 1.20869,-1.26925 0.42494,-0.44625 1.11478,-1.16625 1.90805,-1.99146 0.31334,-0.32596 0.58614,-0.59973 0.60622,-0.60836 0.0201,-0.009 0.0277,0.39922 0.017,0.91017 -0.0172,0.81391 -0.0311,0.96169 -0.11554,1.22219 l -0.096,0.29634 -1.12605,1.13292 c -0.61933,0.6231 -1.142,1.16141 -1.16149,1.19625 -0.0429,0.0766 -0.006,0.14733 0.0773,0.14733 0.0335,0 0.59434,-0.53538 1.24634,-1.18972 l 1.18545,-1.18972 v 0.72652 c 0,0.88538 -0.0521,1.27471 -0.20136,1.50447 -0.0604,0.093 -0.60177,0.66243 -1.20306,1.26544 -1.03624,1.03921 -1.21064,1.25367 -1.01944,1.25367 0.0406,0 0.60257,-0.52851 1.24883,-1.17446 l 1.17503,-1.17447 -0.002,1.01572 c -0.001,0.69841 -0.0178,1.05066 -0.0529,1.12759 -0.0281,0.0615 -0.61161,0.68542 -1.29679,1.38642 l -1.24578,1.27454 h -1.1157 -1.1157 z"
             id="path144" /><path
             style="fill:#4267ae;fill-opacity:1"
             d="m 221.92222,-126.1942 c -0.68496,-0.7014 -1.26851,-1.31576 -1.29679,-1.36525 -0.0364,-0.0636 -0.0518,-0.39337 -0.0528,-1.12713 l -0.001,-1.03717 1.16282,1.16417 c 0.63956,0.64029 1.19512,1.16417 1.23458,1.16417 0.0395,0 0.0802,-0.0253 0.0905,-0.0563 0.0107,-0.032 -0.47471,-0.55304 -1.12392,-1.2065 -0.62847,-0.6326 -1.17241,-1.20904 -1.20874,-1.28098 -0.1152,-0.22813 -0.15946,-0.65172 -0.14674,-1.40461 l 0.0123,-0.73107 1.16416,1.16602 c 0.84872,0.85005 1.18711,1.16286 1.24884,1.1544 0.0583,-0.008 0.0805,-0.038 0.0712,-0.0963 -0.007,-0.0466 -0.51515,-0.58949 -1.12829,-1.2065 -0.61314,-0.61701 -1.14362,-1.17969 -1.17885,-1.2504 -0.13834,-0.27768 -0.1982,-0.75585 -0.1982,-1.58315 v -0.80512 l 0.51858,0.53743 c 0.28522,0.29559 0.70079,0.72853 0.92347,0.96209 0.22269,0.23356 0.98469,1.02997 1.69334,1.76981 0.70864,0.73984 1.35975,1.44469 1.4469,1.56634 0.10237,0.14289 0.17354,0.30187 0.20108,0.44919 0.025,0.13392 0.0426,1.10802 0.0426,2.36009 v 2.13205 h -1.1147 -1.11471 z"
             id="path143" /><path
             style="fill:#4267ae;fill-opacity:1"
             d="m 221.22962,-124.98208 c -0.22445,-0.08 -0.35867,-0.18498 -0.51044,-0.3994 l -0.127,-0.17943 -0.0118,-0.83258 -0.0118,-0.83259 0.88729,0.889 c 0.48801,0.48895 0.99454,1.00806 1.12563,1.15358 l 0.23834,0.26459 -0.71172,-0.002 c -0.49946,-10e-4 -0.76148,-0.0196 -0.8786,-0.0613 z"
             id="path142" /></g><rect
           style="fill:#4267ae;fill-opacity:0;stroke:#000000;stroke-width:0.489964;stroke-dasharray:none;stroke-opacity:1"
           id="rect160"
           width="12.779121"
           height="12.643036"
           x="234.86465"
           y="-134.08043" /></g><path
         id="path139"
         style="fill:#000000"
         d="m 288.11835,-121.46687 c -1.47263,-0.25921 -2.3841,-0.94286 -2.52125,-1.89107 -0.021,-0.14532 -0.0386,-1.23101 -0.0391,-2.41264 l -8.5e-4,-2.14842 h 1.11837 c 0.61511,0 1.14738,-0.0111 1.18283,-0.0247 0.0571,-0.0219 0.066,0.21883 0.0776,2.10608 0.0119,1.94302 0.0198,2.1457 0.0892,2.29958 0.17966,0.39838 0.42484,0.50858 1.13154,0.50858 0.43778,0 0.50919,-0.0109 0.69413,-0.1061 0.25908,-0.13334 0.35098,-0.25707 0.40499,-0.54527 0.0249,-0.13311 0.0427,-1.06262 0.0427,-2.23308 0,-1.88083 0.005,-2.00514 0.0741,-2.00642 0.0408,-7.5e-4 0.56938,-10e-4 1.17475,-9.3e-4 l 1.10067,4.4e-4 v 2.33984 c 0,2.62272 0.005,2.57182 -0.31049,2.99169 -0.41598,0.55312 -1.09564,0.90874 -2.11142,1.10477 -0.52909,0.1021 -1.57813,0.1109 -2.10776,0.0177 z m -15.0495,-0.002 c -0.52496,-0.0378 -0.82836,-0.10763 -1.17585,-0.27047 -0.66825,-0.31315 -1.14691,-0.72828 -1.35736,-1.17722 l -0.11262,-0.24025 -0.0116,-2.39183 -0.0116,-2.39184 1.1834,0.0119 1.1834,0.0119 0.004,2.12308 c 0.004,1.97959 0.01,2.13522 0.0839,2.30281 0.15155,0.3426 0.6175,0.51637 1.26378,0.47131 0.58399,-0.0407 0.84871,-0.21745 0.9361,-0.62494 0.0296,-0.13811 0.0461,-0.94033 0.0461,-2.24357 v -2.02859 l 1.15358,-0.0119 c 0.63447,-0.007 1.16787,-0.006 1.18534,10e-4 0.0517,0.0213 0.0383,4.44439 -0.0144,4.72936 -0.0254,0.13722 -0.0947,0.3453 -0.15401,0.4624 -0.28592,0.56423 -1.11551,1.07295 -1.96541,1.20522 -0.29224,0.0455 -1.86121,0.0887 -2.23713,0.0615 z m 20.15067,-3.2099 v -3.2378 l 1.09392,-0.012 c 0.60166,-0.007 1.12523,-0.006 1.16349,0.002 0.0621,0.0121 0.0708,0.13366 0.0808,1.12971 l 0.0113,1.11615 0.16933,-0.15014 c 0.0931,-0.0826 0.40746,-0.37376 0.6985,-0.64708 0.29104,-0.27332 0.75777,-0.70936 1.03717,-0.96897 l 0.508,-0.47202 1.2065,-0.009 c 0.66357,-0.005 1.31604,-0.011 1.44991,-0.0131 0.13388,-0.002 0.24342,0.008 0.24342,0.0235 0,0.0297 -0.007,0.0361 -1.10067,1.03609 -0.40745,0.37249 -0.76166,0.6963 -0.78711,0.71959 -0.0255,0.0233 -0.34566,0.31786 -0.71156,0.65461 l -0.66527,0.61229 1.6958,1.69276 c 0.9327,0.93102 1.69581,1.70801 1.69581,1.72664 0,0.0186 -0.69056,0.0342 -1.53458,0.0347 l -1.53459,8.2e-4 -1.19398,-1.21791 -1.19398,-1.2179 0.009,1.2065 0.009,1.2065 -1.17475,0.0113 -1.17475,0.0112 z m 8.1578,3.20981 c -0.0402,-0.0402 -0.0383,-6.44111 0.002,-6.46122 0.0175,-0.009 0.54145,-0.008 1.16443,0.002 l 1.13268,0.0179 -0.0108,3.22335 -0.0109,3.22336 -1.12378,0.0122 c -0.61808,0.007 -1.13719,-0.001 -1.15358,-0.0176 z m -36.1172,-0.0644 c -0.56351,-0.0496 -1.27362,-0.21374 -1.59923,-0.36963 -0.3632,-0.17389 -0.81059,-0.55434 -1.00428,-0.85402 -0.13884,-0.21482 -0.34396,-0.78261 -0.29396,-0.81375 0.009,-0.006 0.72479,-0.004 1.58982,0.004 l 1.57279,0.0148 0.0448,0.17803 c 0.0832,0.33039 0.3674,0.49219 0.86456,0.49219 0.72812,0 1.11107,-0.30772 0.89733,-0.72106 -0.11186,-0.21631 -0.33972,-0.27968 -1.29046,-0.35892 -1.00129,-0.0835 -2.40812,-0.40407 -2.72542,-0.62111 -0.54853,-0.37522 -0.74514,-0.87272 -0.62271,-1.57574 0.11175,-0.64174 0.41993,-1.03996 1.03352,-1.3355 0.65656,-0.31622 1.30494,-0.42541 2.52517,-0.42522 1.92205,2.9e-4 2.8286,0.32807 3.27926,1.1857 0.15485,0.29467 0.27654,0.63365 0.27739,0.77269 4.3e-4,0.07 -0.0831,0.074 -1.33777,0.0635 l -1.33823,-0.0112 -0.0829,-0.22239 c -0.0929,-0.24905 -0.25158,-0.39422 -0.5455,-0.49898 -0.22602,-0.0806 -0.71087,-0.0916 -0.96504,-0.0219 -0.35677,0.0978 -0.4935,0.37317 -0.28243,0.56879 0.13883,0.12866 0.29047,0.16998 1.18803,0.32368 2.29198,0.3925 3.15205,0.76318 3.5229,1.51833 0.1011,0.20587 0.11662,0.28828 0.11662,0.61936 0,0.34399 -0.0134,0.40911 -0.1352,0.65616 -0.317,0.64311 -1.05641,1.13209 -2.00855,1.32828 -0.69241,0.14267 -1.76626,0.18424 -2.68048,0.10375 z m 12.67584,-0.21583 c -6.7e-4,-0.0524 -0.002,-0.39866 -0.002,-0.76949 -8.7e-4,-0.64918 0.003,-0.67767 0.0965,-0.76658 0.0536,-0.0508 0.33551,-0.30746 0.62655,-0.57039 0.42704,-0.38578 1.11912,-1.01546 1.37219,-1.24845 0.0253,-0.0233 0.32009,-0.28999 0.65513,-0.59267 l 0.60915,-0.55033 -1.67807,-0.0111 -1.67807,-0.0111 -0.005,-0.74035 c -0.006,-0.90305 -0.006,-0.86037 0,-0.8991 0.003,-0.0175 1.61978,-0.0275 3.59304,-0.0223 l 3.58775,0.009 0.0116,0.67541 0.0116,0.6754 -0.8177,0.73333 c -0.44973,0.40333 -1.23183,1.1048 -1.738,1.55883 l -0.92031,0.8255 1.73697,0.011 1.73697,0.0111 v 0.88853 0.88853 h -3.59833 -3.59834 z m 11.38889,-7.05833 c -1.00042,-0.12783 -1.72937,-0.54289 -2.03052,-1.15615 -0.22997,-0.46834 -0.25393,-0.69313 -0.25475,-2.39002 l -7.3e-4,-1.53458 h 1.0795 1.0795 l 9.3e-4,1.61925 c 8.6e-4,1.48993 0.007,1.63317 0.0801,1.7935 0.16301,0.35895 0.61464,0.55101 1.20799,0.51371 0.37975,-0.0239 0.61943,-0.10688 0.80115,-0.27746 0.23526,-0.22083 0.2382,-0.24574 0.2382,-2.01781 v -1.63119 h 1.0795 1.0795 v 1.58172 c 0,0.86995 -0.0186,1.6798 -0.0413,1.79968 -0.14277,0.75279 -0.8012,1.3718 -1.72395,1.62072 -0.28303,0.0763 -0.47238,0.0908 -1.32505,0.10143 -0.54716,0.007 -1.11866,-0.004 -1.27,-0.0228 z m 6.81567,-1.69345 v -1.69397 h -1.016 -1.016 v -0.84666 -0.84667 h 3.2385 3.2385 v 0.86783 0.86784 h -0.95201 -0.95201 l -0.0111,1.66158 -0.0111,1.66158 -1.25942,0.0112 -1.25941,0.0112 z m 5.16438,1.65742 c -0.0272,-0.009 -0.0421,-0.90141 -0.0421,-2.52941 v -2.51531 h 1.16417 1.16416 v 2.45187 c 0,1.34853 0.0113,2.4814 0.0252,2.51749 0.0223,0.0581 -0.1063,0.067 -1.12212,0.0776 -0.63101,0.007 -1.16622,0.006 -1.18935,-0.002 z m -38.90405,-2.52589 v -2.51883 h 1.68834 1.68835 l 0.27296,0.64558 c 0.15013,0.35507 0.43336,1.03078 0.62941,1.50156 0.19604,0.47079 0.36662,0.85655 0.37906,0.85725 0.0124,7e-4 0.0536,-0.0797 0.0916,-0.17864 0.0379,-0.099 0.31701,-0.77047 0.62021,-1.49225 l 0.55128,-1.31233 1.69608,-0.0111 1.69608,-0.0111 v 2.51931 2.51931 h -1.05789 -1.05789 l -0.011,-1.86744 -0.011,-1.86745 -0.12916,0.3117 c -0.071,0.17143 -0.4227,1.01178 -0.78147,1.86744 l -0.65232,1.55575 h -0.95987 -0.95987 l -0.25471,-0.60325 c -0.28775,-0.68152 -1.22423,-2.91582 -1.27974,-3.05329 -0.0211,-0.0522 -0.0374,0.69627 -0.039,1.78329 l -0.003,1.87325 h -1.05833 -1.05833 z m 10.37966,1.00542 c 0.42601,-0.83238 1.0033,-1.96109 1.28287,-2.50825 l 0.5083,-0.99483 1.18534,-0.0111 1.18533,-0.0111 0.26426,0.51907 c 0.39198,0.76993 1.39715,2.73265 1.87655,3.6642 0.2312,0.44925 0.42036,0.82549 0.42036,0.83609 0,0.0106 -0.5027,0.0193 -1.11711,0.0193 h -1.11711 l -0.1654,-0.39159 -0.16539,-0.39158 -1.20458,-0.011 -1.20458,-0.011 -0.0801,0.20148 c -0.044,0.11081 -0.11783,0.29196 -0.16397,0.40256 l -0.0839,0.20108 h -1.09774 -1.09773 z m 3.67501,-0.44821 c 0,-0.008 -0.11557,-0.28885 -0.25682,-0.62442 -0.14125,-0.33556 -0.2963,-0.71013 -0.34454,-0.83237 -0.0482,-0.12224 -0.0999,-0.22225 -0.11485,-0.22225 -0.0222,0 -0.24404,0.5165 -0.66812,1.55575 l -0.0561,0.13758 h 0.72023 c 0.39613,0 0.72024,-0.006 0.72024,-0.0143 z m 3.556,-0.55721 v -2.51883 l 2.16958,2.5e-4 c 2.42631,2.8e-4 2.80335,0.0291 3.27537,0.24993 0.49958,0.23379 0.74181,0.5784 0.77043,1.09609 0.0155,0.28028 0.005,0.33463 -0.11779,0.58308 -0.20138,0.40906 -0.55499,0.65594 -1.1751,0.82044 l -0.26334,0.0699 0.23077,0.0784 c 0.22718,0.0772 0.64708,0.39371 0.81672,0.61558 0.0965,0.12616 0.99301,1.39508 1.03939,1.47109 0.0255,0.0419 -0.2207,0.0529 -1.17767,0.0529 h -1.20997 l -0.44257,-0.60325 c -0.97174,-1.32454 -1.02445,-1.3741 -1.50811,-1.41796 l -0.24871,-0.0225 v 1.02188 1.02188 h -1.0795 -1.0795 z m 3.45133,-0.53474 c 0.26998,-0.0402 0.34565,-0.0701 0.4674,-0.18492 0.2625,-0.24757 0.15889,-0.60131 -0.20625,-0.70417 -0.0996,-0.0281 -0.47514,-0.0517 -0.85498,-0.0539 l -0.67734,-0.004 -0.0119,0.49741 -0.0119,0.49742 h 0.48645 c 0.26754,0 0.6314,-0.0216 0.80857,-0.0479 z" /><g
         id="g162"><path
           style="fill:#ee353a;fill-opacity:1"
           d="m 253.14191,-122.91265 c -0.43074,-0.30854 -1.24989,-0.89182 -1.82033,-1.29618 -0.57044,-0.40436 -1.22767,-0.87136 -1.4605,-1.03777 -0.23284,-0.16642 -0.5805,-0.41399 -0.77259,-0.55015 -0.19208,-0.13616 -0.34925,-0.26256 -0.34925,-0.28088 0,-0.046 0.65993,-0.40162 0.97278,-0.52423 0.94705,-0.37115 1.9587,-0.406 2.64477,-0.0911 0.30976,0.14217 1.88998,1.16678 2.66198,1.72601 0.0923,0.0669 0.20013,0.12158 0.2396,0.12158 0.0708,0 0.24177,-0.15368 0.20809,-0.18709 -0.0193,-0.0191 -0.79843,-0.57816 -1.09688,-0.787 -0.10478,-0.0733 -0.82868,-0.58055 -1.60867,-1.12719 -0.77999,-0.54664 -1.99443,-1.39616 -2.69875,-1.88782 -0.70432,-0.49165 -1.28058,-0.90661 -1.28058,-0.92213 0,-0.0155 0.081,-0.0539 0.17991,-0.0852 0.099,-0.0313 0.37851,-0.14066 0.62123,-0.24293 1.54296,-0.65013 2.93937,-1.56273 4.06719,-2.65804 l 0.35983,-0.34947 0.97367,0.6921 c 0.53552,0.38065 1.08797,0.77583 1.22767,0.87817 0.21654,0.15863 0.62505,0.44845 1.70414,1.209 0.11047,0.0779 0.45556,0.32443 0.76687,0.54794 l 0.56601,0.40637 -0.10034,0.0813 c -0.17551,0.14219 -0.75043,0.41069 -1.19461,0.55791 -0.89669,0.29719 -1.76155,0.27925 -2.41638,-0.0501 -0.26205,-0.13181 -1.50686,-0.93294 -2.21847,-1.42774 -0.54289,-0.37749 -0.68832,-0.42922 -0.77122,-0.27433 -0.0388,0.0725 -0.0332,0.0988 0.0303,0.14366 0.85691,0.60575 1.28619,0.90822 1.69665,1.19541 0.91104,0.63746 1.8883,1.32333 2.46625,1.73088 0.62872,0.44335 1.51106,1.0617 2.08467,1.46094 0.20359,0.1417 0.36093,0.27258 0.34965,0.29083 -0.0113,0.0183 -0.0713,0.0459 -0.13331,0.0615 -0.062,0.0156 -0.34321,0.12431 -0.62482,0.24164 -1.54858,0.6452 -3.00687,1.6035 -4.19236,2.75497 -0.13824,0.13427 -0.26206,0.24324 -0.27517,0.24215 -0.0131,-0.001 -0.37625,-0.25442 -0.80699,-0.56296 z"
           id="path147" /><rect
           style="fill:#4267ae;fill-opacity:0;stroke:#000000;stroke-width:0.489969;stroke-dasharray:none;stroke-opacity:1"
           id="rect160-6"
           width="12.779117"
           height="12.643276"
           x="247.60411"
           y="-134.04575" /></g></g></g></svg>
